<svg id="Calque_1" data-name="Calque 1" xmlns="http://www.w3.org/2000/svg" viewBox="0 0 100 100"><defs><style>.cls-1,.cls-2,.cls-3{fill:none;stroke:#1d1d1b;stroke-miterlimit:10;}.cls-2{stroke-width:0.5px;}.cls-3{stroke-width:0.75px;}</style></defs><g id="layer1"><g id="g3013"><polygon id="polygon2989" class="cls-1" points="85.42 19.65 78.97 91.96 49.96 99.4 21.02 91.97 14.58 19.65 85.42 19.65"/><path id="path2999" class="cls-2" d="M31.25.38H42v4.5H35.74V9.37H42v4.49H31.25Z"/><path id="path3001" class="cls-2" d="M44.14.38H54.88V4.29H48.63v.78h6.25v9H44.14V10h6.25V9.17H44.14Z"/><path id="path3003" class="cls-2" d="M57,.38H67.77V4.29H61.52v.78h6.25v9H57V10h6.25V9.17H57Z"/></g></g><polyline class="cls-3" points="28.16 38.87 49.97 38.87 71.79 38.87 68.47 76.06 50 80.31 32.13 76.07 30.55 65.69"/><line class="cls-3" x1="29.36" y1="56.82" x2="70.19" y2="56.82"/></svg>