<svg id="Calque_1" data-name="Calque 1" xmlns="http://www.w3.org/2000/svg" viewBox="0 0 100 100"><defs><style>.cls-1,.cls-2{fill:none;stroke:#1d1d1b;stroke-miterlimit:10;}.cls-1{stroke-width:0.75px;}.cls-2{stroke-width:0.5px;}</style></defs><polygon class="cls-1" points="21.02 92.16 14.58 19.84 85.42 19.84 78.97 92.15 50 99.51 21.02 92.16"/><polyline class="cls-1" points="72.33 34.44 27.68 34.44 29.84 56.13 69.55 56.15 66.45 78.98 50 83.62 33.04 78.91 31.44 67.5"/><path class="cls-2" d="M21.11.5h4.5V5h4.13V.5h4.5V14h-4.5V9.47H25.61V14h-4.5V.5Z"/><path class="cls-2" d="M40.17,5h-4V.5H48.65V5h-4v9H40.17V5Z"/><path class="cls-2" d="M50.62.5h4.7l2.89,4.74L61.1.5h4.7V14H61.32V7.3l-3.11,4.8h-.07L55,7.3V14H50.62Z"/><path class="cls-2" d="M68.05.5h4.51v9h6.33V14H68.05Z"/></svg>